<svg width="328" height="81" viewBox="0 0 328 81" fill="none" xmlns="http://www.w3.org/2000/svg">
<path d="M112.414 16.8047C116.534 16.9505 119.842 17.0234 122.34 17.0234C125.748 17.0234 128.829 16.9505 131.582 16.8047C131.655 17.0964 131.691 17.2969 131.691 17.4062C131.691 17.6068 131.655 17.8346 131.582 18.0898C129.449 18.181 127.881 18.3724 126.879 18.6641C125.894 18.9557 125.402 19.4297 125.402 20.0859C125.402 20.3229 125.557 20.7331 125.867 21.3164L134.261 36.3828H134.48L143.668 21.0977C143.886 20.7331 143.996 20.3594 143.996 19.9766C143.996 19.4115 143.631 19.0013 142.902 18.7461C142.191 18.4727 141.116 18.2539 139.675 18.0898C139.603 17.6888 139.566 17.4427 139.566 17.3516C139.566 17.2057 139.603 17.0234 139.675 16.8047C142.027 16.9141 144.16 16.9688 146.074 16.9688C148.134 16.9688 150.203 16.9141 152.281 16.8047C152.354 17.0234 152.39 17.2057 152.39 17.3516C152.39 17.6432 152.354 17.8893 152.281 18.0898C150.95 18.2174 149.829 18.4909 148.918 18.9102C148.006 19.3294 147.222 20.0586 146.566 21.0977L135.218 39.418C135.218 43.3555 135.31 47.9674 135.492 53.2539C135.51 53.7279 135.72 54.138 136.121 54.4844C136.522 54.8125 137.096 55.0677 137.843 55.25C138.609 55.4323 139.247 55.569 139.758 55.6602C140.286 55.7331 140.97 55.806 141.808 55.8789C141.881 56.0977 141.918 56.3438 141.918 56.6172C141.918 56.763 141.881 56.9453 141.808 57.1641C138.746 57.0547 135.574 57 132.293 57C129.03 57 125.858 57.0547 122.777 57.1641C122.704 56.9453 122.668 56.763 122.668 56.6172C122.668 56.3073 122.704 56.0612 122.777 55.8789C123.616 55.806 124.29 55.7331 124.8 55.6602C125.329 55.569 125.967 55.4323 126.715 55.25C127.48 55.0677 128.063 54.8125 128.465 54.4844C128.866 54.138 129.075 53.7279 129.093 53.2539C129.276 48.6784 129.394 44.0664 129.449 39.418L118.758 20.7148C118.047 19.8216 117.172 19.1927 116.133 18.8281C115.093 18.4635 113.854 18.2174 112.414 18.0898C112.341 17.7617 112.304 17.5339 112.304 17.4062C112.304 17.224 112.341 17.0234 112.414 16.8047ZM167.511 32.1445C169.316 32.1445 170.938 32.4635 172.379 33.1016C173.837 33.7396 175.077 34.6237 176.097 35.7539C177.118 36.8841 177.902 38.2422 178.449 39.8281C178.996 41.3958 179.269 43.1094 179.269 44.9688C179.269 48.7604 178.203 51.8411 176.07 54.2109C173.955 56.599 171.103 57.793 167.511 57.793C165.725 57.793 164.103 57.4831 162.644 56.8633C161.204 56.2253 159.974 55.3411 158.953 54.2109C157.932 53.0625 157.139 51.7044 156.574 50.1367C156.027 48.569 155.754 46.8464 155.754 44.9688C155.754 43.1094 156.027 41.3958 156.574 39.8281C157.121 38.2422 157.896 36.8841 158.898 35.7539C159.919 34.6237 161.159 33.7396 162.617 33.1016C164.075 32.4635 165.707 32.1445 167.511 32.1445ZM167.511 33.9219C165.652 33.9219 164.166 34.8242 163.054 36.6289C161.961 38.4336 161.414 41.2135 161.414 44.9688C161.414 48.724 161.961 51.5039 163.054 53.3086C164.166 55.0951 165.652 55.9883 167.511 55.9883C169.371 55.9883 170.847 55.0859 171.941 53.2812C173.053 51.4766 173.609 48.7057 173.609 44.9688C173.609 43.0911 173.463 41.4596 173.172 40.0742C172.88 38.6888 172.47 37.5404 171.941 36.6289C171.412 35.7174 170.774 35.043 170.027 34.6055C169.28 34.1497 168.441 33.9219 167.511 33.9219ZM198.656 17.6797C202.101 17.3516 205.182 16.6042 207.898 15.4375C208.372 15.638 208.682 15.8841 208.828 16.1758C208.828 36.8294 208.91 49.1888 209.074 53.2539C209.092 53.7279 209.229 54.138 209.484 54.4844C209.758 54.8125 210.14 55.0677 210.633 55.25C211.125 55.4323 211.535 55.569 211.863 55.6602C212.191 55.7331 212.619 55.806 213.148 55.8789C213.221 56.1706 213.258 56.3984 213.258 56.5625C213.258 56.6719 213.221 56.8724 213.148 57.1641C212.51 57.1276 211.854 57.0911 211.179 57.0547C210.523 57.0182 210.004 56.9909 209.621 56.9727C209.238 56.9544 208.883 56.9453 208.554 56.9453C208.281 56.9453 207.971 56.9544 207.625 56.9727C207.278 56.9909 206.804 57.0182 206.203 57.0547C205.601 57.0911 205.009 57.1276 204.425 57.1641C204.334 57.1276 204.252 57.082 204.179 57.0273C204.125 56.9909 204.079 56.9635 204.043 56.9453C204.024 56.9089 203.997 56.8633 203.961 56.8086C203.924 56.7357 203.897 56.6901 203.879 56.6719C203.86 56.6536 203.833 56.599 203.797 56.5078C203.778 56.3984 203.76 56.3346 203.742 56.3164C203.815 55.8789 203.851 54.8945 203.851 53.3633C200.843 56.3164 198.063 57.793 195.511 57.793C192.704 57.793 190.416 56.7357 188.648 54.6211C186.88 52.5065 185.996 49.6263 185.996 45.9805C185.996 44.7227 186.142 43.4648 186.433 42.207C186.725 40.9492 187.208 39.7096 187.883 38.4883C188.557 37.2669 189.386 36.1914 190.371 35.2617C191.355 34.332 192.604 33.5846 194.117 33.0195C195.63 32.4362 197.307 32.1445 199.148 32.1445C200.515 32.1445 202.119 32.4362 203.961 33.0195C203.924 29.556 203.906 25.2448 203.906 20.0859C202.867 19.4844 201.117 19.1107 198.656 18.9648C198.583 18.6732 198.547 18.4544 198.547 18.3086C198.547 18.181 198.583 17.9714 198.656 17.6797ZM198.136 54.2109C199.959 54.2109 201.883 53.2357 203.906 51.2852C203.942 49.4987 203.961 46.1172 203.961 41.1406V37.1758C202.703 35.0065 200.78 33.9219 198.191 33.9219C197.644 33.9219 197.097 34.0039 196.55 34.168C196.004 34.332 195.42 34.6602 194.8 35.1523C194.181 35.6445 193.634 36.2734 193.16 37.0391C192.704 37.8047 192.321 38.8711 192.011 40.2383C191.702 41.5872 191.547 43.1458 191.547 44.9141C191.547 47.612 192.103 49.8359 193.215 51.5859C194.345 53.3359 195.985 54.2109 198.136 54.2109ZM217.304 34.4961C220.841 34.1315 223.922 33.3841 226.547 32.2539C227.002 32.4362 227.321 32.6732 227.504 32.9648C227.504 42.4258 227.577 49.1888 227.722 53.2539C227.741 53.7279 227.877 54.138 228.133 54.4844C228.406 54.8125 228.789 55.0677 229.281 55.25C229.773 55.4323 230.183 55.569 230.511 55.6602C230.84 55.7331 231.268 55.806 231.797 55.8789C231.906 56.0977 231.961 56.3255 231.961 56.5625C231.961 56.7995 231.906 57 231.797 57.1641C229.39 57.0547 227.057 57 224.797 57C222.573 57 220.258 57.0547 217.851 57.1641C217.778 56.8724 217.742 56.6719 217.742 56.5625C217.742 56.4714 217.778 56.2435 217.851 55.8789C218.453 55.806 218.945 55.7331 219.328 55.6602C219.711 55.569 220.185 55.4323 220.75 55.25C221.315 55.0677 221.743 54.8125 222.035 54.4844C222.327 54.138 222.481 53.7279 222.5 53.2539C222.573 51.4492 222.609 49.2617 222.609 46.6914C222.609 45.8346 222.6 44.3763 222.582 42.3164C222.563 40.2565 222.554 38.4518 222.554 36.9023C221.515 36.2643 219.765 35.8906 217.304 35.7812C217.231 35.4896 217.195 35.2617 217.195 35.0977C217.195 34.9883 217.231 34.7878 217.304 34.4961ZM221.597 23.0664C221.597 22.1367 221.925 21.3438 222.582 20.6875C223.256 20.0312 224.049 19.7031 224.961 19.7031C225.89 19.7031 226.683 20.0312 227.34 20.6875C227.996 21.3438 228.324 22.1367 228.324 23.0664C228.324 23.9779 227.996 24.7708 227.34 25.4453C226.683 26.1016 225.89 26.4297 224.961 26.4297C224.049 26.4297 223.256 26.1016 222.582 25.4453C221.925 24.7708 221.597 23.9779 221.597 23.0664ZM257.172 42.5078H242.269C242.196 43.6016 242.16 44.5677 242.16 45.4062C242.215 48.1224 243.008 50.3008 244.539 51.9414C246.07 53.5638 248.121 54.375 250.691 54.375C251.384 54.375 252.031 54.3021 252.633 54.1562C253.234 53.9922 253.726 53.8099 254.109 53.6094C254.51 53.4089 254.92 53.1172 255.34 52.7344C255.759 52.3516 256.06 52.0508 256.242 51.832C256.442 51.5951 256.707 51.2487 257.035 50.793C257.363 50.319 257.582 50.0182 257.691 49.8906C258.129 49.9818 258.484 50.1823 258.758 50.4922C257.846 52.9349 256.433 54.7669 254.519 55.9883C252.605 57.1914 250.527 57.793 248.285 57.793C247.173 57.793 246.088 57.6471 245.031 57.3555C243.992 57.082 242.98 56.6263 241.996 55.9883C241.011 55.3503 240.155 54.5664 239.425 53.6367C238.696 52.6888 238.113 51.513 237.675 50.1094C237.238 48.6875 237.019 47.1198 237.019 45.4062C237.019 41.5599 238.195 38.388 240.547 35.8906C242.898 33.3932 245.787 32.1445 249.215 32.1445C250.728 32.1445 252.04 32.3633 253.152 32.8008C254.282 33.2201 255.157 33.7943 255.777 34.5234C256.415 35.2526 256.88 36.0547 257.172 36.9297C257.481 37.7865 257.636 38.707 257.636 39.6914C257.636 40.6029 257.481 41.5417 257.172 42.5078ZM248.558 33.9219C247.3 33.9219 246.106 34.4779 244.976 35.5898C243.864 36.7018 243.062 38.388 242.57 40.6484H252.414C252.596 39.9557 252.687 39.3542 252.687 38.8438C252.687 37.4219 252.359 36.2461 251.703 35.3164C251.047 34.3867 249.998 33.9219 248.558 33.9219ZM263.078 34.4961C266.614 34.1315 269.695 33.3841 272.32 32.2539C272.776 32.4362 273.095 32.6732 273.277 32.9648V37.668C273.952 36.3919 274.954 35.1523 276.285 33.9492C277.634 32.7461 279.037 32.1445 280.496 32.1445C281.59 32.1445 282.474 32.4727 283.148 33.1289C283.841 33.7669 284.187 34.651 284.187 35.7812C284.187 36.8568 283.868 37.6953 283.23 38.2969C282.592 38.8984 281.79 39.1992 280.824 39.1992C279.931 39.1992 279.192 38.9167 278.609 38.3516C278.044 37.7682 277.734 37.0026 277.679 36.0547C276.914 36.3828 276.039 37.112 275.054 38.2422C274.088 39.3724 273.496 40.4935 273.277 41.6055C273.277 45.6706 273.35 49.5534 273.496 53.2539C273.514 53.7279 273.687 54.138 274.015 54.4844C274.343 54.8125 274.827 55.0677 275.465 55.25C276.103 55.4323 276.631 55.569 277.05 55.6602C277.47 55.7331 278.017 55.806 278.691 55.8789C278.8 56.0977 278.855 56.3255 278.855 56.5625C278.855 56.7448 278.8 56.9453 278.691 57.1641C275.957 57.0547 273.25 57 270.57 57C268.346 57 266.031 57.0547 263.625 57.1641C263.552 56.8724 263.515 56.6719 263.515 56.5625C263.515 56.4714 263.552 56.2435 263.625 55.8789C264.226 55.806 264.718 55.7331 265.101 55.6602C265.484 55.569 265.958 55.4323 266.523 55.25C267.088 55.0677 267.517 54.8125 267.808 54.4844C268.1 54.138 268.255 53.7279 268.273 53.2539C268.346 51.4492 268.383 49.2617 268.383 46.6914C268.383 45.8346 268.373 44.3763 268.355 42.3164C268.337 40.2565 268.328 38.4518 268.328 36.9023C267.289 36.2643 265.539 35.8906 263.078 35.7812C263.005 35.4896 262.968 35.2617 262.968 35.0977C262.968 34.9883 263.005 34.7878 263.078 34.4961ZM287.222 32.7461C287.879 32.7826 288.535 32.819 289.191 32.8555C289.847 32.8919 290.367 32.9193 290.75 32.9375C291.133 32.9557 291.488 32.9648 291.816 32.9648C292.09 32.9648 292.409 32.9557 292.773 32.9375C293.138 32.9193 293.63 32.8919 294.25 32.8555C294.888 32.819 295.498 32.7826 296.082 32.7461C296.41 32.8555 296.674 33.138 296.875 33.5938C296.856 33.7396 296.82 33.9583 296.765 34.25C296.729 34.5234 296.692 34.8607 296.656 35.2617C296.638 35.6445 296.629 36.1185 296.629 36.6836L296.574 49.6719C296.574 52.9531 297.567 54.5938 299.554 54.5938C301.396 54.5938 304.011 53.3815 307.402 50.957C307.402 45.5247 307.32 40.7669 307.156 36.6836C307.156 36.3555 307.092 36.0638 306.965 35.8086C306.837 35.5534 306.636 35.3346 306.363 35.1523C306.108 34.9701 305.871 34.8242 305.652 34.7148C305.452 34.5872 305.151 34.4779 304.75 34.3867C304.349 34.2773 304.066 34.2135 303.902 34.1953C303.738 34.1589 303.465 34.1042 303.082 34.0312C303.009 33.7396 302.972 33.5208 302.972 33.375C302.972 33.2474 303.009 33.0378 303.082 32.7461C303.72 32.7826 304.367 32.819 305.023 32.8555C305.698 32.8919 306.226 32.9193 306.609 32.9375C306.992 32.9557 307.347 32.9648 307.675 32.9648C307.949 32.9648 308.268 32.9557 308.633 32.9375C308.997 32.9193 309.489 32.8919 310.109 32.8555C310.747 32.819 311.358 32.7826 311.941 32.7461C312.032 32.8008 312.105 32.8555 312.16 32.9102C312.233 32.9466 312.287 33.0013 312.324 33.0742C312.379 33.1289 312.415 33.1745 312.433 33.2109C312.452 33.2292 312.479 33.293 312.515 33.4023C312.552 33.4935 312.579 33.5573 312.597 33.5938C312.452 34.5781 312.379 35.6081 312.379 36.6836C312.269 39.3633 312.215 41.5417 312.215 43.2188C312.215 44.0938 312.233 45.5612 312.269 47.6211C312.306 49.681 312.324 51.4857 312.324 53.0352C313.363 53.6367 315.113 54.0104 317.574 54.1562C317.665 54.612 317.711 54.849 317.711 54.8672C317.711 54.9766 317.665 55.168 317.574 55.4414C314.129 55.7695 311.048 56.5169 308.332 57.6836C307.858 57.4831 307.548 57.237 307.402 56.9453V52.6797C305.579 54.2474 303.856 55.4961 302.234 56.4258C300.63 57.3372 299.008 57.793 297.367 57.793C295.289 57.793 293.812 57.2096 292.937 56.043C292.08 54.8763 291.634 53.0443 291.597 50.5469L291.379 36.6836C291.342 36.2643 291.26 35.9544 291.133 35.7539C291.023 35.5352 290.832 35.3346 290.558 35.1523C290.303 34.9701 290.066 34.8242 289.847 34.7148C289.629 34.5872 289.319 34.4779 288.918 34.3867C288.517 34.2773 288.234 34.2135 288.07 34.1953C287.906 34.1589 287.623 34.1042 287.222 34.0312C287.149 33.7396 287.113 33.5208 287.113 33.375C287.113 33.2474 287.149 33.0378 287.222 32.7461Z" fill="black"/>
<path d="M80.6087 40.0107C80.6087 61.8256 62.6821 79.5214 40.5543 79.5214C18.4266 79.5214 0.5 61.8256 0.5 40.0107C0.5 18.1959 18.4266 0.5 40.5543 0.5C62.6821 0.5 80.6087 18.1959 80.6087 40.0107Z" fill="#FFFDFD" stroke="black"/>
<ellipse cx="61.0543" cy="40.0107" rx="40.5543" ry="40.0107" fill="#472020"/>
</svg>
